# Blender v2.91.0 OBJ File: 'EscenarioRescatado.blend'
# www.blender.org
mtllib Cube02.mtl
o Box001
v 20.648478 12.295532 21.434191
v 20.648478 12.295533 15.733109
v 20.104868 12.295533 15.733109
v 20.104868 12.295532 21.434191
v 20.648478 15.448348 21.434191
v 20.104868 15.448348 21.434191
v 20.104868 15.448349 15.733110
v 20.648478 15.448349 15.733110
vt 1.000000 0.000000
vt 0.000000 1.000000
vt 1.000000 1.000000
vt 0.000000 0.000000
vt 0.000000 0.000000
vt 1.000000 1.000000
vt 1.000000 0.000000
vt 0.000000 1.000000
vt 0.000000 0.000000
vt 1.000000 1.000000
vt 1.000000 0.000000
vt 0.000000 1.000000
vt 1.000000 0.000000
vt 0.000000 1.000000
vt 0.000000 0.000000
vt 1.000000 1.000000
vt 1.000000 0.000000
vt 0.000000 1.000000
vt 0.000000 0.000000
vt 1.000000 1.000000
vn 0.0000 -1.0000 -0.0000
vn 0.0000 1.0000 0.0000
vn 0.0000 0.0000 1.0000
vn -1.0000 0.0000 0.0000
vn 0.0000 0.0000 -1.0000
vn 1.0000 0.0000 0.0000
usemtl 01___Default
s 1
f 1/1/1 3/2/1 2/3/1
f 3/2/1 1/1/1 4/4/1
f 5/5/2 7/6/2 6/7/2
f 7/6/2 5/5/2 8/8/2
f 1/9/3 6/10/3 4/11/3
f 6/10/3 1/9/3 5/12/3
f 4/4/4 7/6/4 3/13/4
f 7/6/4 4/4/4 6/14/4
f 3/15/5 8/16/5 2/17/5
f 8/16/5 3/15/5 7/18/5
f 2/19/6 5/20/6 1/1/6
f 5/20/6 2/19/6 8/8/6
o Box001.001
v 20.648478 12.295532 39.437958
v 20.648478 12.295533 33.888443
v 20.104868 12.295533 33.888443
v 20.104868 12.295532 39.437958
v 20.648478 15.448348 39.437958
v 20.104868 15.448348 39.437958
v 20.104868 15.448349 33.888443
v 20.648478 15.448349 33.888443
vt 1.000000 0.000000
vt 0.000000 1.000000
vt 1.000000 1.000000
vt 0.000000 0.000000
vt 0.000000 0.000000
vt 1.000000 1.000000
vt 1.000000 0.000000
vt 0.000000 1.000000
vt 0.000000 0.000000
vt 1.000000 1.000000
vt 1.000000 0.000000
vt 0.000000 1.000000
vt 1.000000 0.000000
vt 0.000000 1.000000
vt 0.000000 0.000000
vt 1.000000 1.000000
vt 1.000000 0.000000
vt 0.000000 1.000000
vt 0.000000 0.000000
vt 1.000000 1.000000
vn 0.0000 -1.0000 -0.0000
vn 0.0000 1.0000 0.0000
vn 0.0000 0.0000 1.0000
vn -1.0000 0.0000 0.0000
vn 0.0000 0.0000 -1.0000
vn 1.0000 0.0000 0.0000
usemtl 01___Default
s 1
f 9/21/7 11/22/7 10/23/7
f 11/22/7 9/21/7 12/24/7
f 13/25/8 15/26/8 14/27/8
f 15/26/8 13/25/8 16/28/8
f 9/29/9 14/30/9 12/31/9
f 14/30/9 9/29/9 13/32/9
f 12/24/10 15/26/10 11/33/10
f 15/26/10 12/24/10 14/34/10
f 11/35/11 16/36/11 10/37/11
f 16/36/11 11/35/11 15/38/11
f 10/39/12 13/40/12 9/21/12
f 13/40/12 10/39/12 16/28/12
o Box001.002
v 30.943007 13.877883 60.749805
v 30.943007 13.877884 56.885078
v 30.639414 13.877884 56.885078
v 30.639414 13.877883 60.749805
v 30.943007 15.506695 60.749805
v 30.639414 15.506695 60.749805
v 30.639414 15.506696 56.885082
v 30.943007 15.506696 56.885082
vt 1.000000 0.000000
vt 0.000000 1.000000
vt 1.000000 1.000000
vt 0.000000 0.000000
vt 0.000000 0.000000
vt 1.000000 1.000000
vt 1.000000 0.000000
vt 0.000000 1.000000
vt 0.000000 0.000000
vt 1.000000 1.000000
vt 1.000000 0.000000
vt 0.000000 1.000000
vt 1.000000 0.000000
vt 0.000000 1.000000
vt 0.000000 0.000000
vt 1.000000 1.000000
vt 1.000000 0.000000
vt 0.000000 1.000000
vt 0.000000 0.000000
vt 1.000000 1.000000
vn 0.0000 -1.0000 0.0000
vn 0.0000 1.0000 0.0000
vn 0.0000 0.0000 1.0000
vn -1.0000 0.0000 0.0000
vn 0.0000 0.0000 -1.0000
vn 1.0000 -0.0000 0.0000
usemtl 01___Default
s 1
f 17/41/13 19/42/13 18/43/13
f 19/42/13 17/41/13 20/44/13
f 21/45/14 23/46/14 22/47/14
f 23/46/14 21/45/14 24/48/14
f 17/49/15 22/50/15 20/51/15
f 22/50/15 17/49/15 21/52/15
f 20/44/16 23/46/16 19/53/16
f 23/46/16 20/44/16 22/54/16
f 19/55/17 24/56/17 18/57/17
f 24/56/17 19/55/17 23/58/17
f 18/59/18 21/60/18 17/41/18
f 21/60/18 18/59/18 24/48/18
o Ventanas_Mesh.002
v 18.195587 3.479431 33.582787
v 18.195587 4.809974 33.582787
v 20.191366 4.809974 33.582783
v 20.191366 3.479431 33.582783
v 18.195587 6.140516 33.582783
v 20.191366 6.140516 33.582783
v 18.195587 7.471059 33.582783
v 20.191366 7.471059 33.582783
v 16.798515 3.479431 35.079582
v 16.798515 4.809974 35.079582
v 16.798515 3.479431 36.576454
v 16.798515 4.809974 36.576454
v 16.798515 3.479431 38.073322
v 16.798515 4.809974 38.073322
v 18.195589 3.479432 39.570190
v 18.195589 4.809975 39.570190
v 16.798515 6.140517 35.079582
v 16.798515 6.140517 36.576454
v 16.798515 6.140517 38.073322
v 18.195589 6.140517 39.570190
v 16.798515 7.471060 35.079582
v 16.798515 7.471060 36.576450
v 16.798515 7.471060 38.073322
v 18.195589 7.471060 39.570190
v 20.191368 3.479432 39.570190
v 20.191368 4.809975 39.570190
v 20.191368 6.140517 39.570190
v 20.191368 7.471060 39.570190
v 20.191368 3.479431 38.073322
v 20.191368 4.809974 38.073318
v 20.191368 3.479431 36.576450
v 20.191368 4.809974 36.576450
v 20.191368 3.479431 35.079582
v 20.191368 4.809974 35.079582
v 20.191368 6.140517 38.073318
v 20.191368 6.140517 36.576450
v 20.191368 6.140517 35.079582
v 20.191368 7.471060 38.073318
v 20.191368 7.471060 36.576450
v 20.191368 7.471060 35.079582
v 18.195587 7.471060 35.079582
v 18.195589 7.471060 36.576450
v 18.195589 7.471060 38.073322
v 18.195589 3.479431 38.073322
v 18.195589 3.479431 36.576454
v 18.195587 3.479431 35.079582
vt 1.000000 0.000000
vt 1.000000 0.333300
vt 0.000000 0.333300
vt 0.000000 0.000000
vt 1.000000 0.666700
vt 0.000000 0.666700
vt 1.000000 1.000000
vt 0.000000 1.000000
vt 0.250000 0.000000
vt 0.250000 0.333300
vt 0.000000 0.333300
vt 0.000000 0.000000
vt 0.500000 0.000000
vt 0.500000 0.333300
vt 0.750000 0.000000
vt 0.750000 0.333300
vt 1.000000 0.000000
vt 1.000000 0.333300
vt 0.250000 0.666700
vt 0.000000 0.666700
vt 0.500000 0.666700
vt 0.750000 0.666700
vt 1.000000 0.666700
vt 0.250000 1.000000
vt 0.000000 1.000000
vt 0.500000 1.000000
vt 0.750000 1.000000
vt 1.000000 1.000000
vt 1.000000 0.000000
vt 1.000000 0.333300
vt 0.000000 0.333300
vt 0.000000 0.000000
vt 1.000000 0.666700
vt 0.000000 0.666700
vt 1.000000 1.000000
vt 0.000000 1.000000
vt 0.250000 0.000000
vt 0.250000 0.333300
vt 0.000000 0.333300
vt 0.000000 0.000000
vt 0.500000 0.000000
vt 0.500000 0.333300
vt 0.750000 0.000000
vt 0.750000 0.333300
vt 1.000000 0.000000
vt 1.000000 0.333300
vt 0.250000 0.666700
vt 0.000000 0.666700
vt 0.500000 0.666700
vt 0.750000 0.666700
vt 1.000000 0.666700
vt 0.250000 1.000000
vt 0.000000 1.000000
vt 0.500000 1.000000
vt 0.750000 1.000000
vt 1.000000 1.000000
vt 1.000000 0.000000
vt 1.000000 0.250000
vt 0.000000 0.250000
vt 0.000000 0.000000
vt 1.000000 0.500000
vt 0.000000 0.500000
vt 1.000000 0.750000
vt 0.000000 0.750000
vt 1.000000 0.250000
vt 0.000000 0.250000
vt 1.000000 0.500000
vt 0.000000 0.500000
vt 1.000000 0.750000
vt 0.000000 0.750000
vt 1.000000 1.000000
vt 0.000000 1.000000
vt 0.250000 0.000000
vt 0.500000 1.000000
vt 0.750000 1.000000
vt 0.500000 0.000000
vt 0.750000 0.000000
vt 0.250000 1.000000
vn -0.3985 0.0000 -0.9172
vn -0.0000 0.0000 -1.0000
vn -0.9303 0.0000 -0.3667
vn -1.0000 0.0000 0.0000
vn -0.9303 0.0000 0.3667
vn -0.3985 0.0000 0.9171
vn 0.0000 0.0000 1.0000
vn 1.0000 0.0000 0.0000
vn 0.0000 1.0000 -0.0000
vn 0.0000 -1.0000 0.0000
usemtl 01___Default
s 1
f 25/61/19 26/62/19 27/63/20
f 27/63/20 28/64/20 25/61/19
f 26/62/19 29/65/19 30/66/20
f 30/66/20 27/63/20 26/62/19
f 29/65/19 31/67/19 32/68/20
f 32/68/20 30/66/20 29/65/19
f 33/69/21 34/70/21 26/71/19
f 26/71/19 25/72/19 33/69/21
f 35/73/22 36/74/22 34/70/21
f 34/70/21 33/69/21 35/73/22
f 37/75/23 38/76/23 36/74/22
f 36/74/22 35/73/22 37/75/23
f 39/77/24 40/78/24 38/76/23
f 38/76/23 37/75/23 39/77/24
f 34/70/21 41/79/21 29/80/19
f 29/80/19 26/71/19 34/70/21
f 36/74/22 42/81/22 41/79/21
f 41/79/21 34/70/21 36/74/22
f 38/76/23 43/82/23 42/81/22
f 42/81/22 36/74/22 38/76/23
f 40/78/24 44/83/24 43/82/23
f 43/82/23 38/76/23 40/78/24
f 41/79/21 45/84/21 31/85/19
f 31/85/19 29/80/19 41/79/21
f 42/81/22 46/86/22 45/84/21
f 45/84/21 41/79/21 42/81/22
f 43/82/23 47/87/23 46/86/22
f 46/86/22 42/81/22 43/82/23
f 44/83/24 48/88/24 47/87/23
f 47/87/23 43/82/23 44/83/24
f 49/89/25 50/90/25 40/91/24
f 40/91/24 39/92/24 49/89/25
f 50/90/25 51/93/25 44/94/24
f 44/94/24 40/91/24 50/90/25
f 51/93/25 52/95/25 48/96/24
f 48/96/24 44/94/24 51/93/25
f 53/97/26 54/98/26 50/99/26
f 50/99/26 49/100/26 53/97/26
f 55/101/26 56/102/26 54/98/26
f 54/98/26 53/97/26 55/101/26
f 57/103/26 58/104/26 56/102/26
f 56/102/26 55/101/26 57/103/26
f 28/105/26 27/106/26 58/104/26
f 58/104/26 57/103/26 28/105/26
f 54/98/26 59/107/26 51/108/26
f 51/108/26 50/99/26 54/98/26
f 56/102/26 60/109/26 59/107/26
f 59/107/26 54/98/26 56/102/26
f 58/104/26 61/110/26 60/109/26
f 60/109/26 56/102/26 58/104/26
f 27/106/26 30/111/26 61/110/26
f 61/110/26 58/104/26 27/106/26
f 59/107/26 62/112/26 52/113/26
f 52/113/26 51/108/26 59/107/26
f 60/109/26 63/114/26 62/112/26
f 62/112/26 59/107/26 60/109/26
f 61/110/26 64/115/26 63/114/26
f 63/114/26 60/109/26 61/110/26
f 30/111/26 32/116/26 64/115/26
f 64/115/26 61/110/26 30/111/26
f 31/117/27 65/118/27 64/119/27
f 64/119/27 32/120/27 31/117/27
f 65/118/27 66/121/27 63/122/27
f 63/122/27 64/119/27 65/118/27
f 66/121/27 67/123/27 62/124/27
f 62/124/27 63/122/27 66/121/27
f 67/123/27 48/88/27 52/113/27
f 52/113/27 62/124/27 67/123/27
f 39/77/28 68/125/28 53/126/28
f 53/126/28 49/100/28 39/77/28
f 68/125/28 69/127/28 55/128/28
f 55/128/28 53/126/28 68/125/28
f 69/127/28 70/129/28 57/130/28
f 57/130/28 55/128/28 69/127/28
f 70/129/28 25/131/28 28/132/28
f 28/132/28 57/130/28 70/129/28
f 70/133/28 33/69/28 25/72/28
f 66/134/27 46/86/27 47/87/27
f 47/87/27 67/135/27 66/134/27
f 69/136/28 35/73/28 33/69/28
f 33/69/28 70/133/28 69/136/28
f 68/137/28 37/75/28 35/73/28
f 35/73/28 69/136/28 68/137/28
f 39/77/28 37/75/28 68/137/28
f 31/85/27 45/84/27 65/138/27
f 65/138/27 45/84/27 46/86/27
f 46/86/27 66/134/27 65/138/27
f 67/135/27 47/87/27 48/88/27
o Ventanas_Mesh.004
v 18.195587 3.479431 15.582043
v 18.195587 4.809974 15.582043
v 20.191366 4.809974 15.582042
v 20.191366 3.479431 15.582043
v 18.195587 6.140516 15.582043
v 20.191366 6.140516 15.582042
v 18.195587 7.471059 15.582043
v 20.191366 7.471059 15.582042
v 16.798515 3.479431 17.078842
v 16.798515 4.809974 17.078842
v 16.798515 3.479431 18.575710
v 16.798515 4.809974 18.575710
v 16.798515 3.479431 20.072580
v 16.798515 4.809974 20.072580
v 18.195589 3.479432 21.569448
v 18.195589 4.809975 21.569448
v 16.798515 6.140517 17.078842
v 16.798515 6.140517 18.575710
v 16.798515 6.140517 20.072578
v 18.195589 6.140517 21.569448
v 16.798515 7.471060 17.078842
v 16.798515 7.471060 18.575710
v 16.798515 7.471060 20.072578
v 18.195589 7.471060 21.569447
v 20.191368 3.479432 21.569447
v 20.191368 4.809975 21.569447
v 20.191368 6.140517 21.569447
v 20.191368 7.471060 21.569447
v 20.191368 3.479431 20.072578
v 20.191368 4.809974 20.072578
v 20.191368 3.479431 18.575710
v 20.191368 4.809974 18.575710
v 20.191368 3.479431 17.078840
v 20.191368 4.809974 17.078840
v 20.191368 6.140517 20.072578
v 20.191368 6.140517 18.575708
v 20.191368 6.140517 17.078840
v 20.191368 7.471060 20.072578
v 20.191368 7.471060 18.575708
v 20.191368 7.471060 17.078840
v 18.195587 7.471060 17.078840
v 18.195589 7.471060 18.575710
v 18.195589 7.471060 20.072578
v 18.195589 3.479431 20.072578
v 18.195589 3.479431 18.575710
v 18.195587 3.479431 17.078842
vt 1.000000 0.000000
vt 1.000000 0.333300
vt 0.000000 0.333300
vt 0.000000 0.000000
vt 1.000000 0.666700
vt 0.000000 0.666700
vt 1.000000 1.000000
vt 0.000000 1.000000
vt 0.250000 0.000000
vt 0.250000 0.333300
vt 0.000000 0.333300
vt 0.000000 0.000000
vt 0.500000 0.000000
vt 0.500000 0.333300
vt 0.750000 0.000000
vt 0.750000 0.333300
vt 1.000000 0.000000
vt 1.000000 0.333300
vt 0.250000 0.666700
vt 0.000000 0.666700
vt 0.500000 0.666700
vt 0.750000 0.666700
vt 1.000000 0.666700
vt 0.250000 1.000000
vt 0.000000 1.000000
vt 0.500000 1.000000
vt 0.750000 1.000000
vt 1.000000 1.000000
vt 1.000000 0.000000
vt 1.000000 0.333300
vt 0.000000 0.333300
vt 0.000000 0.000000
vt 1.000000 0.666700
vt 0.000000 0.666700
vt 1.000000 1.000000
vt 0.000000 1.000000
vt 0.250000 0.000000
vt 0.250000 0.333300
vt 0.000000 0.333300
vt 0.000000 0.000000
vt 0.500000 0.000000
vt 0.500000 0.333300
vt 0.750000 0.000000
vt 0.750000 0.333300
vt 1.000000 0.000000
vt 1.000000 0.333300
vt 0.250000 0.666700
vt 0.000000 0.666700
vt 0.500000 0.666700
vt 0.750000 0.666700
vt 1.000000 0.666700
vt 0.250000 1.000000
vt 0.000000 1.000000
vt 0.500000 1.000000
vt 0.750000 1.000000
vt 1.000000 1.000000
vt 1.000000 0.000000
vt 1.000000 0.250000
vt 0.000000 0.250000
vt 0.000000 0.000000
vt 1.000000 0.500000
vt 0.000000 0.500000
vt 1.000000 0.750000
vt 0.000000 0.750000
vt 1.000000 0.250000
vt 0.000000 0.250000
vt 1.000000 0.500000
vt 0.000000 0.500000
vt 1.000000 0.750000
vt 0.000000 0.750000
vt 1.000000 1.000000
vt 0.000000 1.000000
vt 0.250000 0.000000
vt 0.500000 1.000000
vt 0.750000 1.000000
vt 0.500000 0.000000
vt 0.750000 0.000000
vt 0.250000 1.000000
vn -0.3985 -0.0000 -0.9172
vn 0.0000 -0.0000 -1.0000
vn -0.9303 0.0000 -0.3667
vn -1.0000 0.0000 0.0000
vn -0.9303 0.0000 0.3667
vn -0.3985 0.0000 0.9171
vn 0.0000 0.0000 1.0000
vn 1.0000 0.0000 0.0000
vn -0.0000 1.0000 -0.0000
vn 0.0000 -1.0000 0.0000
usemtl 01___Default
s 1
f 71/139/29 72/140/29 73/141/30
f 73/141/30 74/142/30 71/139/29
f 72/140/29 75/143/29 76/144/30
f 76/144/30 73/141/30 72/140/29
f 75/143/29 77/145/29 78/146/30
f 78/146/30 76/144/30 75/143/29
f 79/147/31 80/148/31 72/149/29
f 72/149/29 71/150/29 79/147/31
f 81/151/32 82/152/32 80/148/31
f 80/148/31 79/147/31 81/151/32
f 83/153/33 84/154/33 82/152/32
f 82/152/32 81/151/32 83/153/33
f 85/155/34 86/156/34 84/154/33
f 84/154/33 83/153/33 85/155/34
f 80/148/31 87/157/31 75/158/29
f 75/158/29 72/149/29 80/148/31
f 82/152/32 88/159/32 87/157/31
f 87/157/31 80/148/31 82/152/32
f 84/154/33 89/160/33 88/159/32
f 88/159/32 82/152/32 84/154/33
f 86/156/34 90/161/34 89/160/33
f 89/160/33 84/154/33 86/156/34
f 87/157/31 91/162/31 77/163/29
f 77/163/29 75/158/29 87/157/31
f 88/159/32 92/164/32 91/162/31
f 91/162/31 87/157/31 88/159/32
f 89/160/33 93/165/33 92/164/32
f 92/164/32 88/159/32 89/160/33
f 90/161/34 94/166/34 93/165/33
f 93/165/33 89/160/33 90/161/34
f 95/167/35 96/168/35 86/169/34
f 86/169/34 85/170/34 95/167/35
f 96/168/35 97/171/35 90/172/34
f 90/172/34 86/169/34 96/168/35
f 97/171/35 98/173/35 94/174/34
f 94/174/34 90/172/34 97/171/35
f 99/175/36 100/176/36 96/177/36
f 96/177/36 95/178/36 99/175/36
f 101/179/36 102/180/36 100/176/36
f 100/176/36 99/175/36 101/179/36
f 103/181/36 104/182/36 102/180/36
f 102/180/36 101/179/36 103/181/36
f 74/183/36 73/184/36 104/182/36
f 104/182/36 103/181/36 74/183/36
f 100/176/36 105/185/36 97/186/36
f 97/186/36 96/177/36 100/176/36
f 102/180/36 106/187/36 105/185/36
f 105/185/36 100/176/36 102/180/36
f 104/182/36 107/188/36 106/187/36
f 106/187/36 102/180/36 104/182/36
f 73/184/36 76/189/36 107/188/36
f 107/188/36 104/182/36 73/184/36
f 105/185/36 108/190/36 98/191/36
f 98/191/36 97/186/36 105/185/36
f 106/187/36 109/192/36 108/190/36
f 108/190/36 105/185/36 106/187/36
f 107/188/36 110/193/36 109/192/36
f 109/192/36 106/187/36 107/188/36
f 76/189/36 78/194/36 110/193/36
f 110/193/36 107/188/36 76/189/36
f 77/195/37 111/196/37 110/197/37
f 110/197/37 78/198/37 77/195/37
f 111/196/37 112/199/37 109/200/37
f 109/200/37 110/197/37 111/196/37
f 112/199/37 113/201/37 108/202/37
f 108/202/37 109/200/37 112/199/37
f 113/201/37 94/166/37 98/191/37
f 98/191/37 108/202/37 113/201/37
f 85/155/38 114/203/38 99/204/38
f 99/204/38 95/178/38 85/155/38
f 114/203/38 115/205/38 101/206/38
f 101/206/38 99/204/38 114/203/38
f 115/205/38 116/207/38 103/208/38
f 103/208/38 101/206/38 115/205/38
f 116/207/38 71/209/38 74/210/38
f 74/210/38 103/208/38 116/207/38
f 116/211/38 79/147/38 71/150/38
f 112/212/37 92/164/37 93/165/37
f 93/165/37 113/213/37 112/212/37
f 115/214/38 81/151/38 79/147/38
f 79/147/38 116/211/38 115/214/38
f 114/215/38 83/153/38 81/151/38
f 81/151/38 115/214/38 114/215/38
f 85/155/38 83/153/38 114/215/38
f 77/163/37 91/162/37 111/216/37
f 111/216/37 91/162/37 92/164/37
f 92/164/37 112/212/37 111/216/37
f 113/213/37 93/165/37 94/166/37
o Cube
v 71.171509 -0.467500 50.095982
v 71.171509 1.211119 50.095982
v 71.171509 -0.467500 29.279881
v 71.171509 1.211119 29.279881
v 105.378464 -0.467500 50.095982
v 105.378464 1.211119 50.095982
v 105.378464 -0.467500 29.279881
v 105.378464 1.211119 29.279881
vt 0.375000 0.000000
vt 0.625000 0.000000
vt 0.625000 0.250000
vt 0.375000 0.250000
vt 0.625000 0.500000
vt 0.375000 0.500000
vt 0.625000 0.750000
vt 0.375000 0.750000
vt 0.625000 1.000000
vt 0.375000 1.000000
vt 0.125000 0.500000
vt 0.125000 0.750000
vt 0.875000 0.500000
vt 0.875000 0.750000
vn -1.0000 0.0000 0.0000
vn 0.0000 0.0000 -1.0000
vn 1.0000 0.0000 0.0000
vn 0.0000 0.0000 1.0000
vn 0.0000 -1.0000 0.0000
vn 0.0000 1.0000 0.0000
usemtl 01___Default
s off
f 117/217/39 118/218/39 120/219/39 119/220/39
f 119/220/40 120/219/40 124/221/40 123/222/40
f 123/222/41 124/221/41 122/223/41 121/224/41
f 121/224/42 122/223/42 118/225/42 117/226/42
f 119/227/43 123/222/43 121/224/43 117/228/43
f 124/221/44 120/229/44 118/230/44 122/223/44
