# 3ds Max Wavefront OBJ Exporter v0.99 - (c)2007 guruware
# File Created: 19.01.2021 18:11:16

mtllib pizq.mtl

#
# object Homer
#

#
# object piernaIzq
#

v  92.8727 1.2334 35.6517
v  92.9322 1.2568 35.6087
v  92.9317 1.2144 35.4227
v  92.9859 1.1449 35.2440
v  93.0175 1.2355 35.3345
v  93.0777 1.1426 35.1744
v  93.0944 1.2623 35.4431
v  93.0976 1.2148 35.2707
v  93.1628 1.2362 35.4175
v  93.1504 1.1742 35.2355
v  93.1475 1.2465 35.9161
v  93.1499 1.2152 35.9407
v  93.1833 1.2028 35.9189
v  93.0447 1.2692 35.9131
v  93.0376 1.2198 35.9406
v  92.9086 0.9659 35.9237
v  93.0933 0.9686 35.9620
v  92.9217 0.9789 35.9684
v  93.1552 1.2518 35.6866
v  92.9655 0.9550 35.6783
v  93.1802 0.9644 35.7106
v  93.1904 1.2334 35.6961
v  92.9199 1.2437 35.9141
v  92.8923 1.2603 35.8798
v  92.8395 1.2337 35.8895
v  93.2190 0.9737 35.5997
v  93.1703 1.0049 35.6725
v  93.0958 0.9552 35.5665
v  93.2038 1.1935 35.4211
v  93.2173 1.1956 35.6876
v  93.2330 1.0339 35.3565
v  93.2212 1.0128 35.6737
v  92.9121 1.0454 35.3493
v  92.9732 0.9978 35.1493
v  92.8622 0.9847 35.5591
v  92.9116 0.9789 35.3061
v  93.2142 1.0045 35.7076
v  93.1857 0.9936 35.9196
v  93.2122 0.9805 35.7184
v  92.8181 1.2013 35.8676
v  92.8501 1.1965 35.6326
v  93.1886 1.1162 35.2272
v  93.2327 0.9908 35.2281
v  93.2096 0.9874 35.1559
v  93.0473 0.9565 35.2013
v  92.9046 0.9624 35.5459
v  93.1843 0.9611 35.2370
v  93.2404 0.9759 35.3229
v  92.9687 0.9737 35.1879
v  93.0767 0.9846 35.0970
v  92.8611 1.0090 35.6315
v  92.8160 0.9934 35.8689
v  92.8460 1.0131 35.6530
v  92.8470 0.9765 35.6667
v  92.8205 0.9825 35.9041
v  93.1718 0.9829 35.9529
v  93.0470 1.0220 35.1008
v  93.1669 1.0187 35.1171
v  93.1089 1.0246 35.0953
v  92.8456 0.9861 35.9391
v  93.1378 0.9861 35.9799
v  93.0266 0.9858 35.9860
v  92.9702 0.9939 35.6687
v  93.1346 2.6574 35.3887
v  93.1416 2.5967 35.3824
v  93.0551 2.6473 35.3707
v  93.0804 2.6844 35.4010
v  93.1710 2.6839 35.4326
v  93.2362 2.6475 35.4522
v  93.2394 2.6838 35.5002
v  93.2878 2.6595 35.5402
v  93.2990 2.5857 35.5477
v  93.3232 2.6506 35.6542
v  93.2794 2.6834 35.5796
v  93.2954 2.6835 35.6441
v  93.3192 2.6589 35.7119
v  93.3181 2.5857 35.7823
v  93.2985 2.6839 35.7310
v  93.2904 2.6581 35.8455
v  93.2697 2.5964 35.8995
v  93.2692 2.6849 35.8363
v  93.2208 2.6498 35.9537
v  93.1511 2.6572 35.9931
v  93.1367 2.5904 36.0086
v  93.2052 2.6839 35.9286
v  93.1290 2.6840 35.9789
v  93.0381 2.6585 36.0138
v  92.9903 2.6840 35.9791
v  92.9580 2.6581 35.9885
v  92.9220 2.5886 35.9781
v  93.0319 2.5948 36.0227
v  92.9122 2.6839 35.9286
v  92.8830 2.6581 35.9306
v  92.8437 2.5887 35.8928
v  92.8626 2.6849 35.8602
v  92.8296 2.6595 35.8500
v  92.7999 2.6500 35.7741
v  92.8267 2.6837 35.7762
v  92.7935 2.6512 35.6813
v  92.8188 2.6839 35.6592
v  92.8270 2.6581 35.5448
v  92.8014 2.5910 35.6013
v  92.8476 2.5964 35.4907
v  92.8784 2.6843 35.5006
v  92.8908 2.6504 35.4433
v  92.9663 2.6572 35.3972
v  92.9742 2.5856 35.3836
v  92.9404 2.6844 35.4390
v  93.0604 2.6849 35.9889
v  93.0068 2.6835 35.4088
v  92.8133 1.2410 35.8280
v  92.7900 1.2420 35.8005
v  92.7967 1.2410 35.7670
v  92.8737 1.2410 35.9325
v  92.8437 1.2420 35.9168
v  92.8393 1.2410 35.8839
v  92.9622 1.2410 36.0008
v  92.9159 1.2428 35.9937
v  92.9152 1.2410 35.9719
v  93.0485 1.2415 36.0357
v  93.0259 1.2410 36.0208
v  93.0980 1.2410 36.0194
v  93.1487 1.2424 36.0194
v  93.1552 1.2410 36.0008
v  93.2431 1.2415 35.9507
v  93.2022 1.2410 35.9719
v  93.2437 1.2410 35.9325
v  93.3138 1.2428 35.8483
v  93.2781 1.2410 35.8839
v  93.3041 1.2410 35.8280
v  93.3399 1.2417 35.7078
v  93.3206 1.2410 35.7670
v  93.3267 1.2410 35.7112
v  93.2922 1.2410 35.5335
v  93.2796 1.2429 35.4768
v  93.3296 1.2427 35.5888
v  93.0390 1.2410 35.3685
v  93.0688 1.2415 35.3546
v  93.0849 1.2410 35.3694
v  93.0872 1.3928 35.3678
v  93.0038 1.3920 35.3732
v  92.9475 1.3921 35.3960
v  92.8970 1.3923 35.4323
v  92.8458 1.3923 35.4927
v  92.8005 1.3920 35.5967
v  92.7893 1.3919 35.7026
v  92.7981 1.3930 35.7798
v  92.8338 1.3926 35.8785
v  92.9084 1.3926 35.9694
v  92.9845 1.3923 36.0108
v  93.0592 1.3929 36.0244
v  93.1482 1.3916 36.0066
v  93.2204 1.3923 35.9579
v  93.2715 1.3923 35.8976
v  93.3169 1.3920 35.7936
v  93.3281 1.3919 35.6876
v  93.3192 1.3930 35.6105
v  93.2836 1.3926 35.5118
v  93.2090 1.3926 35.4208
v  93.1365 1.4285 35.3813
v  93.2348 1.3788 35.9726
v  93.3093 1.3788 35.8706
v  92.8076 1.2415 35.5445
v  92.7771 1.2420 35.6700
v  92.7928 1.2638 35.5462
v  93.3452 1.3795 35.7448
v  93.3345 1.3846 35.6025
v  93.0729 1.2644 35.3428
v  93.1874 1.2677 35.3794
v  93.1871 1.2420 35.3907
v  92.9686 1.2425 35.3708
v  92.8602 1.2637 35.4354
v  92.9571 1.2785 35.3630
v  93.2843 1.3846 35.4823
v  92.9967 1.3749 35.3525
v  93.1892 1.3876 35.3933
v  92.9195 1.3807 35.3909
v  93.1051 1.3286 35.3458
v  93.0961 1.3850 35.3531
v  93.2035 1.3658 35.3885
v  93.2644 1.2918 35.4407
v  93.3255 1.3146 35.5410
v  93.3520 1.3196 35.6558
v  93.3483 1.2677 35.7577
v  93.3001 1.2987 35.8993
v  93.2476 1.2601 35.9628
v  93.1603 1.2785 36.0273
v  93.0795 1.3713 36.0443
v  93.0346 1.2950 36.0502
v  92.9840 1.3858 36.0268
v  92.9138 1.3658 36.0018
v  92.9816 1.2607 36.0337
v  92.8289 1.2916 35.9198
v  92.8030 1.3846 35.8508
v  92.7750 1.2916 35.7978
v  92.7730 1.3838 35.7235
v  92.7639 1.2859 35.6727
v  92.7845 1.3788 35.5816
v  92.8411 1.3788 35.4643
v  93.1456 1.3807 36.0263
v  92.8668 1.3855 35.9501
v  92.7907 1.2410 35.7112
v  92.8389 2.6842 35.5798
v  92.9872 1.2410 35.3795
v  92.9381 1.2410 35.4025
v  92.8937 1.2410 35.4368
v  92.8743 1.2415 35.4396
v  92.8555 1.2410 35.4810
v  92.8252 1.2410 35.5335
v  92.8038 1.2410 35.5923
v  92.7922 1.2410 35.6550
v  93.3252 1.2410 35.6550
v  93.3136 1.2410 35.5923
v  93.2619 1.2410 35.4810
v  93.2237 1.2410 35.4368
v  93.1792 1.2410 35.4025
v  93.1302 1.2410 35.3795
# 217 vertices

vn -0.6430 0.7533 -0.1384
vn -0.2809 0.9540 -0.1050
vn -0.7211 0.6169 -0.3155
vn -0.6791 0.5214 -0.5167
vn -0.3110 0.8762 -0.3683
vn -0.0885 0.6746 -0.7329
vn 0.1037 0.9866 -0.1258
vn 0.1075 0.8847 -0.4536
vn 0.5221 0.8341 -0.1782
vn 0.5147 0.6953 -0.5017
vn 0.4392 0.7988 0.4112
vn 0.3456 0.3731 0.8610
vn 0.8468 0.2999 0.4393
vn 0.0229 0.8739 0.4856
vn -0.0602 0.3332 0.9409
vn -0.1267 -0.9788 0.1611
vn 0.0704 -0.9350 0.3477
vn -0.2308 -0.5040 0.8323
vn 0.3267 0.9451 -0.0020
vn 0.0207 -0.8130 -0.5819
vn 0.2771 -0.7998 -0.5325
vn 0.6587 0.7520 0.0241
vn -0.2305 0.5363 0.8120
vn -0.2664 0.9353 0.2330
vn -0.6440 0.5938 0.4824
vn 0.6487 -0.7335 0.2030
vn 0.0571 -0.9857 0.1584
vn 0.0063 -0.9752 0.2212
vn 0.8680 0.4781 -0.1341
vn 0.9443 0.3246 0.0541
vn 0.9901 0.1399 -0.0118
vn 0.8373 -0.5283 0.1408
vn -0.9367 0.1961 -0.2900
vn -0.7286 -0.1756 -0.6620
vn -0.8242 -0.5663 -0.0091
vn -0.8144 -0.5217 -0.2541
vn 0.7984 -0.5621 -0.2157
vn 0.9349 -0.2701 0.2303
vn 0.7966 -0.5386 -0.2744
vn -0.9482 0.2691 0.1687
vn -0.9258 0.3185 -0.2035
vn 0.8065 0.4470 -0.3869
vn 0.9451 -0.2366 -0.2254
vn 0.7315 -0.4149 -0.5410
vn -0.0548 -0.9861 -0.1567
vn -0.2448 -0.9566 0.1583
vn 0.2295 -0.9661 -0.1180
vn 0.8366 -0.5475 -0.0189
vn -0.5121 -0.7993 -0.3146
vn -0.0469 -0.6181 -0.7847
vn -0.0092 -0.9682 0.2499
vn -0.9645 -0.2623 -0.0315
vn -0.8676 -0.3675 -0.3349
vn -0.5620 -0.6254 -0.5414
vn -0.7570 -0.5740 0.3121
vn 0.6569 -0.5601 0.5048
vn -0.3821 0.2001 -0.9022
vn 0.5337 0.1095 -0.8385
vn 0.2142 0.1620 -0.9633
vn -0.5228 -0.4280 0.7372
vn 0.3069 -0.4018 0.8628
vn -0.0620 -0.3711 0.9265
vn 0.0845 -0.6135 -0.7851
vn 0.3256 0.4255 -0.8443
vn 0.3785 0.0531 -0.9241
vn -0.0325 0.3281 -0.9441
vn 0.0415 0.8845 -0.4647
vn 0.2846 0.8626 -0.4181
vn 0.6850 0.3122 -0.6583
vn 0.3806 0.8809 -0.2813
vn 0.8288 0.4101 -0.3807
vn 0.9202 0.0367 -0.3897
vn 0.9432 0.3153 -0.1043
vn 0.4421 0.8869 -0.1336
vn 0.4591 0.8849 -0.0791
vn 0.9243 0.3755 0.0682
vn 0.9751 0.0523 0.2155
vn 0.4907 0.8687 0.0675
vn 0.8446 0.3870 0.3700
vn 0.8444 0.0581 0.5326
vn 0.4098 0.8909 0.1956
vn 0.6332 0.3455 0.6926
vn 0.3587 0.3911 0.8475
vn 0.3378 0.0588 0.9394
vn 0.3349 0.8817 0.3325
vn 0.1620 0.8683 0.4689
vn -0.0595 0.4194 0.9058
vn -0.1688 0.8806 0.4428
vn -0.4239 0.3993 0.8129
vn -0.5707 0.0559 0.8193
vn -0.1064 0.0737 0.9916
vn -0.3153 0.8816 0.3512
vn -0.6790 0.3971 0.6174
vn -0.8493 0.0445 0.5260
vn -0.3633 0.9055 0.2191
vn -0.8275 0.4064 0.3874
vn -0.9330 0.3078 0.1868
vn -0.4739 0.8753 0.0966
vn -0.9449 0.3256 -0.0339
vn -0.5019 0.8627 -0.0617
vn -0.8435 0.3956 -0.3633
vn -0.9683 0.0511 -0.2445
vn -0.8435 0.0545 -0.5343
vn -0.3895 0.8779 -0.2787
vn -0.6483 0.3443 -0.6791
vn -0.3706 0.4158 -0.8306
vn -0.3787 0.0435 -0.9245
vn -0.2633 0.8879 -0.3773
vn 0.0272 0.8974 0.4404
vn -0.1151 0.8752 -0.4699
vn -0.0835 -0.9958 0.0371
vn -0.6370 -0.7497 0.1794
vn -0.0908 -0.9958 0.0106
vn -0.0705 -0.9948 0.0729
vn -0.5500 -0.7442 0.3790
vn -0.0816 -0.9959 0.0395
vn -0.0490 -0.9905 0.1284
vn -0.4309 -0.6761 0.5976
vn -0.0668 -0.9946 0.0796
vn 0.0138 -0.7577 0.6524
vn -0.0404 -0.9923 0.1170
vn 0.0242 -0.9946 0.1007
vn 0.2257 -0.7381 0.6358
vn 0.0494 -0.9948 0.0891
vn 0.4000 -0.8399 0.3669
vn 0.0748 -0.9899 0.1207
vn 0.0551 -0.9980 0.0313
vn 0.6661 -0.6938 0.2738
vn 0.1577 -0.9814 0.1092
vn 0.1134 -0.9930 0.0337
vn 0.6699 -0.7420 -0.0275
vn 0.2029 -0.9777 0.0544
vn 0.0537 -0.9986 0.0029
vn 0.1330 -0.9892 -0.0615
vn 0.5969 -0.6971 -0.3971
vn 0.6974 -0.6945 -0.1769
vn -0.0117 -0.9981 -0.0604
vn 0.0163 -0.7939 -0.6079
vn 0.0077 -0.9991 -0.0415
vn 0.0924 0.5461 -0.8326
vn -0.2049 0.4600 -0.8639
vn -0.4029 0.4766 -0.7814
vn -0.6065 0.4600 -0.6485
vn -0.7705 0.4549 -0.4466
vn -0.8518 0.4787 -0.2127
vn -0.8547 0.5185 -0.0249
vn -0.8568 0.4761 0.1978
vn -0.7436 0.5106 0.4317
vn -0.5481 0.4285 0.7183
vn -0.2806 0.5762 0.7677
vn -0.0020 0.4028 0.9153
vn 0.3452 0.5050 0.7911
vn 0.5766 0.4920 0.6523
vn 0.7514 0.4433 0.4888
vn 0.8640 0.4457 0.2342
vn 0.8867 0.4622 -0.0090
vn 0.8226 0.5381 -0.1835
vn 0.7537 0.5201 -0.4018
vn 0.5750 0.4724 -0.6680
vn 0.3775 -0.0680 -0.9235
vn 0.5905 0.4680 0.6575
vn 0.7920 0.4881 0.3667
vn -0.4959 -0.8393 -0.2227
vn -0.6543 -0.7556 -0.0311
vn -0.8997 -0.2555 -0.3539
vn 0.8583 0.5012 0.1098
vn 0.8049 0.5621 -0.1903
vn 0.0538 -0.2262 -0.9726
vn 0.4799 -0.2032 -0.8535
vn 0.3427 -0.7674 -0.5419
vn -0.2399 -0.7531 -0.6126
vn -0.7199 -0.2432 -0.6500
vn -0.4034 -0.1530 -0.9021
vn 0.6810 0.5687 -0.4614
vn -0.2162 0.4199 -0.8814
vn 0.3330 0.7435 -0.5800
vn -0.4898 0.4945 -0.7181
vn 0.1959 0.0529 -0.9792
vn 0.1307 0.5738 -0.8085
vn 0.5494 0.2524 -0.7965
vn 0.7484 -0.0855 -0.6577
vn 0.9258 -0.0018 -0.3780
vn 0.9957 -0.0026 -0.0931
vn 0.9584 -0.2393 0.1556
vn 0.8637 -0.0579 0.5007
vn 0.6718 -0.2802 0.6857
vn 0.3904 -0.1318 0.9112
vn 0.0748 0.3649 0.9280
vn -0.0761 -0.0644 0.9950
vn -0.2461 0.5780 0.7781
vn -0.5299 0.2882 0.7976
vn -0.3145 -0.3380 0.8870
vn -0.8235 -0.0809 0.5616
vn -0.7640 0.5616 0.3176
vn -0.9651 -0.0910 0.2454
vn -0.8327 0.5514 0.0507
vn -0.9938 -0.1005 -0.0476
vn -0.8420 0.4762 -0.2536
vn -0.7144 0.4657 -0.5223
vn 0.3142 0.5022 0.8057
vn -0.6061 0.5970 0.5255
vn -0.0927 -0.9957 0.0085
vn -0.4281 0.8938 -0.1335
vn -0.0304 -0.9943 -0.1025
vn -0.0714 -0.9910 -0.1134
vn -0.0300 -0.9989 -0.0363
vn -0.4013 -0.8251 -0.3977
vn -0.0608 -0.9974 -0.0388
vn -0.0442 -0.9987 -0.0239
vn -0.0826 -0.9964 -0.0171
vn -0.0742 -0.9972 -0.0113
vn 0.1069 -0.9941 -0.0169
vn 0.0996 -0.9947 -0.0274
vn 0.0905 -0.9936 -0.0679
vn 0.1051 -0.9892 -0.1026
vn 0.0344 -0.9978 -0.0568
vn 0.0374 -0.9933 -0.1098
# 217 vertex normals

vt 0.0000 0.0000 0.0000
# 1 texture coords

o piernaIzq
g piernaIzq
usemtl wire_134006006
s 1
f 1/1/1 2/1/2 3/1/3 
f 4/1/4 5/1/5 6/1/6 
f 5/1/5 7/1/7 8/1/8 
f 7/1/7 9/1/9 8/1/8 
f 8/1/8 10/1/10 6/1/6 
f 11/1/11 12/1/12 13/1/13 
f 11/1/11 14/1/14 12/1/12 
f 14/1/14 15/1/15 12/1/12 
f 16/1/16 17/1/17 18/1/18 
f 14/1/14 11/1/11 19/1/19 
f 17/1/17 16/1/16 20/1/20 
f 21/1/21 17/1/17 20/1/20 
f 19/1/19 11/1/11 22/1/22 
f 23/1/23 24/1/24 25/1/25 
f 26/1/26 27/1/27 28/1/28 
f 7/1/7 2/1/2 14/1/14 
f 29/1/29 30/1/30 31/1/31 
f 22/1/22 30/1/30 29/1/29 
f 32/1/32 26/1/26 31/1/31 
f 33/1/33 4/1/4 34/1/34 
f 35/1/35 33/1/33 36/1/36 
f 37/1/37 38/1/38 39/1/39 
f 40/1/40 25/1/25 41/1/41 
f 42/1/42 43/1/43 44/1/44 
f 10/1/10 29/1/29 42/1/42 
f 9/1/9 29/1/29 10/1/10 
f 19/1/19 22/1/22 9/1/9 
f 45/1/45 28/1/28 46/1/46 
f 47/1/47 28/1/28 45/1/45 
f 7/1/7 19/1/19 9/1/9 
f 41/1/41 1/1/1 3/1/3 
f 44/1/44 43/1/43 48/1/48 
f 31/1/31 26/1/26 48/1/48 
f 48/1/48 26/1/26 47/1/47 
f 36/1/36 34/1/34 49/1/49 
f 46/1/46 36/1/36 45/1/45 
f 34/1/34 50/1/50 49/1/49 
f 51/1/51 35/1/35 46/1/46 
f 32/1/32 37/1/37 27/1/27 
f 37/1/37 39/1/39 21/1/21 
f 32/1/32 38/1/38 37/1/37 
f 52/1/52 53/1/53 54/1/54 
f 29/1/29 31/1/31 43/1/43 
f 40/1/40 52/1/52 55/1/55 
f 38/1/38 13/1/13 56/1/56 
f 4/1/4 6/1/6 57/1/57 
f 10/1/10 42/1/42 58/1/58 
f 57/1/57 6/1/6 59/1/59 
f 41/1/41 3/1/3 33/1/33 
f 22/1/22 11/1/11 13/1/13 
f 13/1/13 30/1/30 22/1/22 
f 3/1/3 2/1/2 5/1/5 
f 4/1/4 3/1/3 5/1/5 
f 6/1/6 5/1/5 8/1/8 
f 8/1/8 9/1/9 10/1/10 
f 15/1/15 14/1/14 23/1/23 
f 14/1/14 24/1/24 23/1/23 
f 14/1/14 2/1/2 24/1/24 
f 28/1/28 27/1/27 51/1/51 
f 51/1/51 46/1/46 28/1/28 
f 24/1/24 2/1/2 1/1/1 
f 1/1/1 25/1/25 24/1/24 
f 53/1/53 41/1/41 35/1/35 
f 34/1/34 4/1/4 57/1/57 
f 58/1/58 42/1/42 44/1/44 
f 36/1/36 33/1/33 34/1/34 
f 52/1/52 40/1/40 53/1/53 
f 16/1/16 55/1/55 54/1/54 
f 54/1/54 20/1/20 16/1/16 
f 41/1/41 25/1/25 1/1/1 
f 9/1/9 22/1/22 29/1/29 
f 47/1/47 26/1/26 28/1/28 
f 5/1/5 2/1/2 7/1/7 
f 47/1/47 44/1/44 48/1/48 
f 43/1/43 31/1/31 48/1/48 
f 55/1/55 52/1/52 54/1/54 
f 50/1/50 59/1/59 58/1/58 
f 58/1/58 44/1/44 50/1/50 
f 46/1/46 35/1/35 36/1/36 
f 45/1/45 36/1/36 49/1/49 
f 57/1/57 59/1/59 50/1/50 
f 45/1/45 50/1/50 44/1/44 
f 44/1/44 47/1/47 45/1/45 
f 49/1/49 50/1/50 45/1/45 
f 34/1/34 57/1/57 50/1/50 
f 60/1/60 55/1/55 16/1/16 
f 16/1/16 18/1/18 60/1/60 
f 17/1/17 56/1/56 61/1/61 
f 17/1/17 61/1/61 62/1/62 
f 17/1/17 62/1/62 18/1/18 
f 39/1/39 56/1/56 21/1/21 
f 39/1/39 38/1/38 56/1/56 
f 21/1/21 56/1/56 17/1/17 
f 54/1/54 53/1/53 63/1/63 
f 63/1/63 20/1/20 54/1/54 
f 26/1/26 32/1/32 27/1/27 
f 63/1/63 37/1/37 21/1/21 
f 21/1/21 20/1/20 63/1/63 
f 63/1/63 53/1/53 51/1/51 
f 51/1/51 53/1/53 35/1/35 
f 7/1/7 14/1/14 19/1/19 
f 51/1/51 27/1/27 63/1/63 
f 27/1/27 37/1/37 63/1/63 
f 40/1/40 55/1/55 60/1/60 
f 60/1/60 25/1/25 40/1/40 
f 32/1/32 30/1/30 38/1/38 
f 35/1/35 41/1/41 33/1/33 
f 42/1/42 29/1/29 43/1/43 
f 53/1/53 40/1/40 41/1/41 
f 31/1/31 30/1/30 32/1/32 
f 15/1/15 23/1/23 18/1/18 
f 18/1/18 62/1/62 15/1/15 
f 30/1/30 13/1/13 38/1/38 
f 61/1/61 12/1/12 15/1/15 
f 15/1/15 62/1/62 61/1/61 
f 23/1/23 25/1/25 60/1/60 
f 60/1/60 18/1/18 23/1/23 
f 13/1/13 12/1/12 61/1/61 
f 61/1/61 56/1/56 13/1/13 
f 6/1/6 10/1/10 58/1/58 
f 58/1/58 59/1/59 6/1/6 
f 33/1/33 3/1/3 4/1/4 
f 64/1/64 65/1/65 66/1/66 
f 67/1/67 64/1/64 66/1/66 
f 64/1/64 68/1/68 69/1/69 
f 64/1/64 69/1/69 65/1/65 
f 70/1/70 71/1/71 69/1/69 
f 71/1/71 72/1/72 69/1/69 
f 71/1/71 73/1/73 72/1/72 
f 74/1/74 73/1/73 71/1/71 
f 73/1/73 75/1/75 76/1/76 
f 73/1/73 76/1/76 77/1/77 
f 78/1/78 79/1/79 76/1/76 
f 77/1/77 79/1/79 80/1/80 
f 79/1/79 81/1/81 82/1/82 
f 82/1/82 83/1/83 84/1/84 
f 85/1/85 83/1/83 82/1/82 
f 86/1/86 87/1/87 83/1/83 
f 88/1/88 89/1/89 87/1/87 
f 89/1/89 90/1/90 91/1/91 
f 89/1/89 92/1/92 93/1/93 
f 93/1/93 94/1/94 90/1/90 
f 95/1/95 96/1/96 93/1/93 
f 96/1/96 97/1/97 94/1/94 
f 98/1/98 97/1/97 96/1/96 
f 97/1/97 98/1/98 99/1/99 
f 100/1/100 101/1/101 99/1/99 
f 102/1/102 101/1/101 103/1/103 
f 101/1/101 104/1/104 105/1/105 
f 105/1/105 106/1/106 107/1/107 
f 108/1/108 106/1/106 105/1/105 
f 109/1/109 95/1/95 88/1/88 
f 98/1/98 95/1/95 100/1/100 
f 88/1/88 95/1/95 92/1/92 
f 81/1/81 86/1/86 85/1/85 
f 75/1/75 81/1/81 78/1/78 
f 74/1/74 81/1/81 75/1/75 
f 70/1/70 81/1/81 74/1/74 
f 68/1/68 81/1/81 70/1/70 
f 67/1/67 81/1/81 68/1/68 
f 110/1/110 66/1/66 106/1/106 
f 111/1/111 112/1/112 113/1/113 
f 114/1/114 115/1/115 116/1/116 
f 117/1/117 118/1/118 119/1/119 
f 120/1/120 121/1/121 122/1/122 
f 123/1/123 122/1/122 124/1/124 
f 125/1/125 124/1/124 126/1/126 
f 123/1/123 124/1/124 125/1/125 
f 125/1/125 126/1/126 127/1/127 
f 128/1/128 127/1/127 129/1/129 
f 128/1/128 129/1/129 130/1/130 
f 131/1/131 130/1/130 132/1/132 
f 131/1/131 132/1/132 133/1/133 
f 134/1/134 135/1/135 136/1/136 
f 137/1/137 138/1/138 139/1/139 
f 66/1/66 140/1/140 141/1/141 
f 107/1/107 141/1/141 142/1/142 
f 105/1/105 142/1/142 143/1/143 
f 103/1/103 143/1/143 144/1/144 
f 103/1/103 144/1/144 145/1/145 
f 99/1/99 145/1/145 146/1/146 
f 97/1/97 146/1/146 147/1/147 
f 97/1/97 147/1/147 148/1/148 
f 94/1/94 148/1/148 149/1/149 
f 90/1/90 149/1/149 150/1/150 
f 151/1/151 91/1/91 150/1/150 
f 82/1/82 152/1/152 153/1/153 
f 80/1/80 153/1/153 154/1/154 
f 80/1/80 154/1/154 155/1/155 
f 77/1/77 155/1/155 156/1/156 
f 73/1/73 156/1/156 157/1/157 
f 72/1/72 157/1/157 158/1/158 
f 69/1/69 158/1/158 159/1/159 
f 65/1/65 159/1/159 160/1/160 
f 65/1/65 160/1/160 140/1/140 
f 153/1/153 161/1/161 154/1/154 
f 154/1/154 162/1/162 155/1/155 
f 163/1/163 164/1/164 165/1/165 
f 155/1/155 166/1/166 156/1/156 
f 157/1/157 156/1/156 167/1/167 
f 168/1/168 169/1/169 170/1/170 
f 171/1/171 172/1/172 173/1/173 
f 158/1/158 167/1/167 174/1/174 
f 141/1/141 175/1/175 142/1/142 
f 159/1/159 174/1/174 176/1/176 
f 142/1/142 177/1/177 143/1/143 
f 168/1/168 178/1/178 169/1/169 
f 179/1/179 180/1/180 178/1/178 
f 169/1/169 180/1/180 181/1/181 
f 174/1/174 182/1/182 181/1/181 
f 135/1/135 182/1/182 136/1/136 
f 167/1/167 183/1/183 182/1/182 
f 136/1/136 183/1/183 184/1/184 
f 166/1/166 184/1/184 183/1/183 
f 184/1/184 162/1/162 185/1/185 
f 185/1/185 186/1/186 128/1/128 
f 185/1/185 161/1/161 186/1/186 
f 186/1/186 161/1/161 187/1/187 
f 187/1/187 188/1/188 189/1/189 
f 190/1/190 191/1/191 189/1/189 
f 192/1/192 191/1/191 118/1/118 
f 118/1/118 191/1/191 193/1/193 
f 194/1/194 195/1/195 193/1/193 
f 196/1/196 197/1/197 195/1/195 
f 197/1/197 198/1/198 165/1/165 
f 165/1/165 199/1/199 172/1/172 
f 172/1/172 177/1/177 173/1/173 
f 173/1/173 175/1/175 168/1/168 
f 168/1/168 175/1/175 178/1/178 
f 152/1/152 200/1/200 153/1/153 
f 151/1/151 200/1/200 152/1/152 
f 118/1/118 193/1/193 115/1/115 
f 149/1/149 201/1/201 190/1/190 
f 148/1/148 194/1/194 201/1/201 
f 123/1/123 186/1/186 187/1/187 
f 147/1/147 196/1/196 194/1/194 
f 147/1/147 146/1/146 196/1/196 
f 125/1/125 128/1/128 186/1/186 
f 145/1/145 198/1/198 146/1/146 
f 144/1/144 199/1/199 145/1/145 
f 143/1/143 199/1/199 144/1/144 
f 136/1/136 184/1/184 131/1/131 
f 176/1/176 180/1/180 179/1/179 
f 140/1/140 176/1/176 179/1/179 
f 160/1/160 159/1/159 140/1/140 
f 84/1/84 83/1/83 87/1/87 
f 87/1/87 91/1/91 84/1/84 
f 67/1/67 68/1/68 64/1/64 
f 68/1/68 70/1/70 69/1/69 
f 70/1/70 74/1/74 71/1/71 
f 73/1/73 74/1/74 75/1/75 
f 76/1/76 75/1/75 78/1/78 
f 78/1/78 81/1/81 79/1/79 
f 77/1/77 76/1/76 79/1/79 
f 80/1/80 79/1/79 82/1/82 
f 82/1/82 81/1/81 85/1/85 
f 83/1/83 85/1/85 86/1/86 
f 86/1/86 109/1/109 87/1/87 
f 112/1/112 164/1/164 202/1/202 
f 202/1/202 113/1/113 112/1/112 
f 109/1/109 88/1/88 87/1/87 
f 87/1/87 89/1/89 91/1/91 
f 88/1/88 92/1/92 89/1/89 
f 89/1/89 93/1/93 90/1/90 
f 93/1/93 96/1/96 94/1/94 
f 92/1/92 95/1/95 93/1/93 
f 95/1/95 98/1/98 96/1/96 
f 99/1/99 98/1/98 100/1/100 
f 100/1/100 203/1/203 101/1/101 
f 102/1/102 99/1/99 101/1/101 
f 101/1/101 203/1/203 104/1/104 
f 103/1/103 101/1/101 105/1/105 
f 105/1/105 104/1/104 108/1/108 
f 67/1/67 109/1/109 81/1/81 
f 108/1/108 109/1/109 67/1/67 
f 104/1/104 109/1/109 108/1/108 
f 203/1/203 109/1/109 104/1/104 
f 95/1/95 109/1/109 203/1/203 
f 110/1/110 108/1/108 67/1/67 
f 100/1/100 95/1/95 203/1/203 
f 86/1/86 81/1/81 109/1/109 
f 108/1/108 110/1/110 106/1/106 
f 110/1/110 67/1/67 66/1/66 
f 107/1/107 106/1/106 66/1/66 
f 204/1/204 138/1/138 137/1/137 
f 205/1/205 171/1/171 204/1/204 
f 171/1/171 138/1/138 204/1/204 
f 206/1/206 207/1/207 205/1/205 
f 207/1/207 171/1/171 205/1/205 
f 208/1/208 207/1/207 206/1/206 
f 209/1/209 163/1/163 208/1/208 
f 163/1/163 207/1/207 208/1/208 
f 210/1/210 163/1/163 209/1/209 
f 211/1/211 164/1/164 210/1/210 
f 164/1/164 163/1/163 210/1/210 
f 202/1/202 164/1/164 211/1/211 
f 115/1/115 112/1/112 111/1/111 
f 111/1/111 116/1/116 115/1/115 
f 118/1/118 115/1/115 114/1/114 
f 114/1/114 119/1/119 118/1/118 
f 120/1/120 118/1/118 117/1/117 
f 117/1/117 121/1/121 120/1/120 
f 84/1/84 91/1/91 151/1/151 
f 151/1/151 152/1/152 84/1/84 
f 123/1/123 120/1/120 122/1/122 
f 128/1/128 125/1/125 127/1/127 
f 131/1/131 128/1/128 130/1/130 
f 212/1/212 136/1/136 131/1/131 
f 212/1/212 131/1/131 133/1/133 
f 213/1/213 136/1/136 212/1/212 
f 134/1/134 136/1/136 213/1/213 
f 214/1/214 135/1/135 134/1/134 
f 215/1/215 170/1/170 135/1/135 
f 215/1/215 135/1/135 214/1/214 
f 216/1/216 170/1/170 215/1/215 
f 217/1/217 138/1/138 170/1/170 
f 217/1/217 170/1/170 216/1/216 
f 139/1/139 138/1/138 217/1/217 
f 141/1/141 107/1/107 66/1/66 
f 142/1/142 105/1/105 107/1/107 
f 103/1/103 105/1/105 143/1/143 
f 145/1/145 102/1/102 103/1/103 
f 145/1/145 99/1/99 102/1/102 
f 97/1/97 99/1/99 146/1/146 
f 94/1/94 97/1/97 148/1/148 
f 90/1/90 94/1/94 149/1/149 
f 91/1/91 90/1/90 150/1/150 
f 195/1/195 197/1/197 164/1/164 
f 164/1/164 112/1/112 195/1/195 
f 152/1/152 82/1/82 84/1/84 
f 80/1/80 82/1/82 153/1/153 
f 155/1/155 77/1/77 80/1/80 
f 156/1/156 73/1/73 77/1/77 
f 72/1/72 73/1/73 157/1/157 
f 69/1/69 72/1/72 158/1/158 
f 65/1/65 69/1/69 159/1/159 
f 66/1/66 65/1/65 140/1/140 
f 154/1/154 161/1/161 162/1/162 
f 163/1/163 165/1/165 172/1/172 
f 172/1/172 207/1/207 163/1/163 
f 155/1/155 162/1/162 166/1/166 
f 165/1/165 164/1/164 197/1/197 
f 167/1/167 156/1/156 166/1/166 
f 170/1/170 169/1/169 181/1/181 
f 181/1/181 135/1/135 170/1/170 
f 138/1/138 168/1/168 170/1/170 
f 171/1/171 207/1/207 172/1/172 
f 158/1/158 157/1/157 167/1/167 
f 171/1/171 173/1/173 168/1/168 
f 168/1/168 138/1/138 171/1/171 
f 141/1/141 179/1/179 175/1/175 
f 140/1/140 179/1/179 141/1/141 
f 142/1/142 175/1/175 177/1/177 
f 176/1/176 174/1/174 180/1/180 
f 159/1/159 158/1/158 174/1/174 
f 193/1/193 195/1/195 112/1/112 
f 112/1/112 115/1/115 193/1/193 
f 143/1/143 177/1/177 199/1/199 
f 175/1/175 179/1/179 178/1/178 
f 169/1/169 178/1/178 180/1/180 
f 180/1/180 174/1/174 181/1/181 
f 135/1/135 181/1/181 182/1/182 
f 174/1/174 167/1/167 182/1/182 
f 136/1/136 182/1/182 183/1/183 
f 167/1/167 166/1/166 183/1/183 
f 184/1/184 166/1/166 162/1/162 
f 184/1/184 185/1/185 128/1/128 
f 185/1/185 162/1/162 161/1/161 
f 187/1/187 161/1/161 200/1/200 
f 187/1/187 200/1/200 188/1/188 
f 188/1/188 190/1/190 189/1/189 
f 192/1/192 189/1/189 191/1/191 
f 191/1/191 201/1/201 193/1/193 
f 201/1/201 194/1/194 193/1/193 
f 194/1/194 196/1/196 195/1/195 
f 197/1/197 196/1/196 198/1/198 
f 165/1/165 198/1/198 199/1/199 
f 172/1/172 199/1/199 177/1/177 
f 173/1/173 177/1/177 175/1/175 
f 120/1/120 123/1/123 187/1/187 
f 187/1/187 189/1/189 120/1/120 
f 153/1/153 200/1/200 161/1/161 
f 151/1/151 188/1/188 200/1/200 
f 151/1/151 190/1/190 188/1/188 
f 151/1/151 150/1/150 190/1/190 
f 150/1/150 149/1/149 190/1/190 
f 120/1/120 192/1/192 118/1/118 
f 190/1/190 201/1/201 191/1/191 
f 120/1/120 189/1/189 192/1/192 
f 149/1/149 148/1/148 201/1/201 
f 148/1/148 147/1/147 194/1/194 
f 123/1/123 125/1/125 186/1/186 
f 146/1/146 198/1/198 196/1/196 
f 128/1/128 131/1/131 184/1/184 
f 145/1/145 199/1/199 198/1/198 
f 140/1/140 159/1/159 176/1/176 
# 396 faces

